<svg width="76" height="76" viewBox="0 0 76 76" fill="none" xmlns="http://www.w3.org/2000/svg">
<path d="M21.4873 62L20.833 61.3813C19.6988 60.3089 18.7055 59.1857 17.8532 58.0118C17.0009 56.8378 16.4134 55.6197 16.0908 54.3574C15.8117 53.1364 15.8582 51.8551 16.2303 50.5134C16.646 49.213 17.5742 47.8817 19.0148 46.5195L54.467 13L55.514 13.9899C56.561 14.9798 57.4693 16.0595 58.239 17.2291C59.0477 18.3618 59.5721 19.5571 59.8122 20.8149C60.0913 22.0359 60.0229 23.2966 59.6073 24.5971C59.1916 25.8975 58.2828 27.2104 56.8811 28.5357L21.4873 62Z" fill="#1F2937"/>
<path d="M75.7506 55.2403L58.7539 55.5762C56.5538 55.6419 54.7015 55.4482 53.1971 54.9949C51.7294 54.5071 50.573 53.8637 49.7281 53.0649C48.8097 52.1965 48.2027 51.1727 47.9071 49.9933C47.6116 48.814 47.5359 47.531 47.68 46.1443L66.328 46.4352L66.0207 29.0118C69.3941 28.8094 71.8707 29.4549 73.4503 30.9484C75.2136 32.6156 76.0623 35.4602 75.9964 39.4821L75.7506 55.2403Z" fill="#1F2937"/>
<path d="M0.368483 19.6039L0.0131971 35.674C-0.056293 37.7543 0.148645 39.5056 0.62801 40.9279C1.14398 42.3157 1.82443 43.409 2.66936 44.2079C3.58776 45.0762 4.67063 45.6501 5.91798 45.9295C7.16533 46.209 8.52232 46.2806 9.98893 46.1443L9.68123 28.5129L28.1092 28.8034C28.3234 25.6139 27.6406 23.2724 26.061 21.7788C24.2976 20.1116 21.2891 19.3092 17.0353 19.3715L0.368483 19.6039Z" fill="#0EA5E9"/>
</svg>
